<svg width="18" height="18" viewBox="0 0 18 18" fill="none" xmlns="http://www.w3.org/2000/svg">
<g filter="url(#filter0_i_143_2190)">
<path fill-rule="evenodd" clip-rule="evenodd" d="M9.25 17.5C13.9444 17.5 17.75 13.6944 17.75 9C17.75 4.30558 13.9444 0.5 9.25 0.5C4.55558 0.5 0.75 4.30558 0.75 9C0.75 13.6944 4.55558 17.5 9.25 17.5ZM9.25 15.9545C13.0909 15.9545 16.2045 12.8409 16.2045 9C16.2045 5.15911 13.0909 2.04545 9.25 2.04545C5.40911 2.04545 2.29545 5.15911 2.29545 9C2.29545 12.8409 5.40911 15.9545 9.25 15.9545Z" fill="white"/>
<rect width="10.8182" height="1.54545" rx="0.772727" transform="matrix(0.766044 0.642788 0.642788 -0.766044 4.61377 6.11505)" fill="white"/>
</g>
<defs>
<filter id="filter0_i_143_2190" x="0.75" y="0.5" width="17" height="18" filterUnits="userSpaceOnUse" color-interpolation-filters="sRGB">
<feFlood flood-opacity="0" result="BackgroundImageFix"/>
<feBlend mode="normal" in="SourceGraphic" in2="BackgroundImageFix" result="shape"/>
<feColorMatrix in="SourceAlpha" type="matrix" values="0 0 0 0 0 0 0 0 0 0 0 0 0 0 0 0 0 0 127 0" result="hardAlpha"/>
<feOffset dy="1"/>
<feGaussianBlur stdDeviation="0.5"/>
<feComposite in2="hardAlpha" operator="arithmetic" k2="-1" k3="1"/>
<feColorMatrix type="matrix" values="0 0 0 0 0.831373 0 0 0 0 0.831373 0 0 0 0 0.831373 0 0 0 0.25 0"/>
<feBlend mode="normal" in2="shape" result="effect1_innerShadow_143_2190"/>
</filter>
</defs>
</svg>
