<svg width="25" height="26" viewBox="0 0 25 26" fill="none" xmlns="http://www.w3.org/2000/svg">
<g filter="url(#filter0_i_403_232)">
<path d="M7.22656 21.2031V15.9297C7.22656 15.2825 7.75123 14.7578 8.39844 14.7578H16.6016C17.2488 14.7578 17.7734 15.2825 17.7734 15.9297V21.7891M17.7734 4.79688V7.14062C17.7734 7.78783 17.2488 8.3125 16.6016 8.3125L8.39844 8.3125C7.75123 8.3125 7.22656 7.78783 7.22656 7.14062L7.22656 3.625M21.2866 7.72409L17.7759 4.21341C17.3992 3.83666 16.8882 3.625 16.3554 3.625H5.13393C4.02441 3.625 3.125 4.52441 3.125 5.63393V20.3661C3.125 21.4756 4.02441 22.375 5.13393 22.375H19.8661C20.9756 22.375 21.875 21.4756 21.875 20.3661V9.14462C21.875 8.61182 21.6633 8.10084 21.2866 7.72409Z" stroke="white" stroke-width="2" stroke-linecap="round"/>
</g>
<defs>
<filter id="filter0_i_403_232" x="0" y="0.5" width="25" height="26" filterUnits="userSpaceOnUse" color-interpolation-filters="sRGB">
<feFlood flood-opacity="0" result="BackgroundImageFix"/>
<feBlend mode="normal" in="SourceGraphic" in2="BackgroundImageFix" result="shape"/>
<feColorMatrix in="SourceAlpha" type="matrix" values="0 0 0 0 0 0 0 0 0 0 0 0 0 0 0 0 0 0 127 0" result="hardAlpha"/>
<feOffset dy="1"/>
<feGaussianBlur stdDeviation="0.5"/>
<feComposite in2="hardAlpha" operator="arithmetic" k2="-1" k3="1"/>
<feColorMatrix type="matrix" values="0 0 0 0 0.831373 0 0 0 0 0.831373 0 0 0 0 0.831373 0 0 0 0.25 0"/>
<feBlend mode="normal" in2="shape" result="effect1_innerShadow_403_232"/>
</filter>
</defs>
</svg>
