<svg width="28" height="28" viewBox="0 0 28 28" fill="none" xmlns="http://www.w3.org/2000/svg">
<path d="M2.8 21.253C4.08175 19.115 6.89093 17.6518 11.2736 17.6518C15.6563 17.6518 18.4655 19.115 19.7473 21.253M20.5581 16.0307C22.8791 17.1911 24.0395 18.3516 25.2 20.6725M18.1442 7.16053C19.2363 7.74801 19.9787 8.90157 19.9787 10.2285C19.9787 11.5171 19.2786 12.6422 18.238 13.2442M14.7551 10.2285C14.7551 12.1512 13.1964 13.7099 11.2736 13.7099C9.35091 13.7099 7.79223 12.1512 7.79223 10.2285C7.79223 8.30575 9.35091 6.74707 11.2736 6.74707C13.1964 6.74707 14.7551 8.30575 14.7551 10.2285Z" stroke="#424242" stroke-width="2" stroke-linecap="round"/>
</svg>
